/* XPM */
static char *_f52f242773f4885eaa41ffb58ff3521PcbtNXcPmpNMtkTP[] = {
/* columns rows colors chars-per-pixel */
"70 70 233 2 ",
"   c None",
".  c #16181D",
"X  c #251D10",
"o  c #2B231F",
"O  c #362919",
"+  c #3C301A",
"@  c #392B0F",
"#  c #191525",
"$  c #1C1925",
"%  c #3F1929",
"&  c #32152A",
"*  c #391B32",
"=  c #201E26",
"-  c #272727",
";  c #282827",
":  c #2A2424",
">  c #3C3A2E",
",  c #3C3734",
"<  c #2E2B33",
"1  c #55390E",
"2  c #5B3C0C",
"3  c #573505",
"4  c #473415",
"5  c #4E3219",
"6  c #623D09",
"7  c #673C01",
"8  c #633916",
"9  c #723A11",
"0  c #47122E",
"q  c #431B2B",
"w  c #531C2E",
"e  c #5E1E2D",
"r  c #4E1E37",
"t  c #611E2D",
"y  c #482C23",
"u  c #482736",
"i  c #592437",
"p  c #423D30",
"a  c #5A342D",
"s  c #67212E",
"d  c #6B2034",
"f  c #792438",
"g  c #68332E",
"h  c #5E4315",
"j  c #5C461C",
"k  c #6E4201",
"l  c #6B460F",
"z  c #704A01",
"x  c #744C0C",
"c  c #7B4C0B",
"v  c #7C4804",
"b  c #7B520E",
"n  c #674716",
"m  c #7A5219",
"M  c #705119",
"N  c #584528",
"B  c #4A4536",
"V  c #54493A",
"C  c #5A5139",
"Z  c #4D422F",
"A  c #654D2C",
"S  c #795926",
"D  c #644B35",
"F  c #675538",
"G  c #75573C",
"H  c #6E4E2C",
"J  c #77633A",
"K  c #473F41",
"L  c #483F41",
"P  c #5B5442",
"I  c #5C564B",
"U  c #574E4C",
"Y  c #684B48",
"T  c #695747",
"R  c #785A47",
"E  c #655E53",
"W  c #685F55",
"Q  c #7A4649",
"!  c #69614B",
"~  c #756244",
"^  c #7A6548",
"/  c #6B6459",
"(  c #70665A",
")  c #736655",
"_  c #79725A",
"`  c #7E704C",
"'  c #6C6E6A",
"]  c #7F7561",
"[  c #832435",
"{  c #8B2536",
"}  c #9E2836",
"|  c #962635",
" . c #AA2D36",
".. c #BC3637",
"X. c #B4363A",
"o. c #AA3339",
"O. c #803E1F",
"+. c #C33F3E",
"@. c #82570F",
"#. c #8E5B0E",
"$. c #865404",
"%. c #935A02",
"&. c #8A5B1A",
"*. c #905212",
"=. c #9A6109",
"-. c #9A6405",
";. c #976817",
":. c #A56609",
">. c #B66E01",
",. c #BD7B01",
"<. c #B17600",
"1. c #B07314",
"2. c #835C25",
"3. c #91463D",
"4. c #886429",
"5. c #94682A",
"6. c #8C6B35",
"7. c #916934",
"8. c #9C763E",
"9. c #957636",
"0. c #987130",
"q. c #A9782B",
"w. c #B2762C",
"e. c #A3590B",
"r. c #C85E10",
"t. c #C4710E",
"y. c #D06820",
"u. c #944A4C",
"i. c #BC574E",
"p. c #B35851",
"a. c #816D4D",
"s. c #877247",
"d. c #987843",
"f. c #8B7B55",
"g. c #867855",
"h. c #8D6F54",
"j. c #8A7D6B",
"k. c #837A65",
"l. c #8E6B65",
"z. c #A76C61",
"x. c #BB7765",
"c. c #C64240",
"v. c #C05046",
"b. c #C5645A",
"n. c #B78433",
"m. c #BA8728",
"M. c #CB8816",
"N. c #DE951E",
"B. c #D5931A",
"V. c #D5920B",
"C. c #E59B02",
"Z. c #FEAE01",
"A. c #F5A604",
"S. c #F2A70C",
"D. c #CC9227",
"F. c #D99424",
"G. c #DB942A",
"H. c #C68A35",
"J. c #C8923D",
"K. c #CA9638",
"L. c #D49639",
"P. c #CF892E",
"I. c #F08F2E",
"U. c #DDA530",
"Y. c #EBA228",
"T. c #FCB720",
"R. c #E7A031",
"E. c #E9A539",
"W. c #FBAC34",
"Q. c #F3AC3D",
"!. c #F2A530",
"~. c #F5B632",
"^. c #FEC033",
"/. c #948258",
"(. c #AA8543",
"). c #A58755",
"_. c #B49758",
"`. c #888169",
"'. c #948E6C",
"]. c #958664",
"[. c #878475",
"{. c #958A72",
"}. c #928670",
"|. c #9E9573",
" X c #A8986B",
".X c #B29C69",
"XX c #B38E74",
"oX c #A79D7B",
"OX c #A5987B",
"+X c #BA9678",
"@X c #A98777",
"#X c #B7A26C",
"$X c #B1A477",
"%X c #C79D4D",
"&X c #D3AB58",
"*X c #E7A848",
"=X c #FCB849",
"-X c #EEB34F",
";X c #CC8874",
":X c #C8A668",
">X c #DBBB72",
",X c #D5B975",
"<X c #D2B272",
"1X c #E3B462",
"2X c #FFC75D",
"3X c #F9C76A",
"4X c #9C9383",
"5X c #B1A481",
"6X c #BAAC89",
"7X c #B6AA8E",
"8X c #AEA790",
"9X c #AE9E83",
"0X c #D39588",
"qX c #DCAE8E",
"wX c #C5B692",
"eX c #C3B59A",
"rX c #C7B485",
"tX c #E2B495",
"yX c #D2C099",
"uX c #F2D592",
"iX c #FFE29C",
"pX c #DECAA1",
"aX c #D4C5A4",
"sX c #CEC7B4",
"dX c #DDD0B0",
"fX c #EAD5AA",
"gX c #E2D0AC",
"hX c #E9DAB6",
"jX c #F1E1BD",
"kX c #F4E7C7",
"lX c #F8EDD1",
"zX c #E6E3CE",
"xX c #E3DDC6",
/* pixels */
"                                                                                                                                            ",
"                                                                                                                                            ",
"                                                                                                                                            ",
"                                                                                                                                            ",
"                                                              y                                                                             ",
"                                                          d { o. .a                                                                         ",
"                                                        | XX6XtXfX .G                                                                       ",
"                                                      u z.6X6XfXfXp.^                                                                       ",
"                                                      u 6X6X9X( fXqX_ <X                                                                    ",
"                                                      * {.7XtX( fXfX8XE ].h.3.                                                              ",
"                                                        _ 6XOX6XwXfXfXfXfXb.}  .v.p.                                                        ",
"                                                        l.6Xj.wX6XpXfXeXqXc.c.X.} }  .{ D                                                   ",
"                                                          {.OXOX{.wXfXwXu...c.;X+XwXtXXXz.a                                                 ",
"                                                        E L }.# # rXpXgX[ { fX[.wXfXqX;X6Xz.T                                               ",
"                                                        # B ` #X' K eX;Xo.;X7XwXfX+.....+X6Xw Y                                             ",
"                                                            rXsXkXlXU 0Xo.i.6XaXtX+...fXwXXXd [ i                                           ",
"                                                            hXlXfXkX[.lX} } pXpXqXX. .XX6XQ { { { Y                                         ",
"                                                            xXhXjXjXfXsX} } ;XyX9XQ t e [ d } } u.rX                                        ",
"                                                            zXfXdXkXjX8X0X| } p.j.# * z.u.{ } } x.6X7X                                      ",
"                                                              aX|.xXlX7XsX} }  .s }.# p {.7X+X;XhXwX7XgX                                    ",
"                                                              k.OX9XlXkX[.k.t d X.i.* r r K 7XfXfXpX6X6XOX                                  ",
"                                                              <X/ |.] ' dX7Xi.......o.i f q a.j.fXfXfXwX6X^                                 ",
"                                                              ' {.5X|.8XlXtX6X+Xv.+.c.+.} w D +XeXfXfXfX6XL                                 ",
"                                                              F {./ E _ lXkXwX6X6X+Xx.x.t  .0 ,X#XeXfXj._ D.3                               ",
"                                                            q.m.H.S K B +XjXjXyXwX}.( t [ 5.W.1X,X}.2.=XiX-X;.A                             ",
"          1                                                 M 8.8.7.<     oX@XY w t 0 T :X!.W.*X  /.1.Q.<X).N H                             ",
"          +                                                 m J.8.4.`     f.d w T 5.%XE.!.W.!.w.    T S F  XF.6                             ",
"          + n U.                                          4.2.8.d.M           iXuXK.I.E.!.!.H { ^     l 4.8.8.N                             ",
"          O + M.A.V.^.~.  $.#.      M M j z               q.H.%X4.6.        pXiXuXJ.J.*Xd.t } [ w       #.m.).F.a.                          ",
"          + + S ^.A.Y.T.Z.K.k q.m 4 h t.h M.S h         s.6.6.9.P           $X<Xz.7.w.f e } } { [ G     ^ S ).8.N                           ",
"          4 + + ,.U.<.B.~.k q.q.q.H + 0.b M.%.t.V       I 4.8.N           ].* r L f f f t } t | { w       D M.8.6.V                         ",
"            + + -.M.-.k k k k q.6 l @.@.@ -.r.1.N a.&Xl ,.n.4.).          h.@Xj.* d f f t } e t { d       S 2.8.8.l                         ",
"            + + h @.,.k k k k 7 k $.,.,.:.9 I.@.H.XXf.e.g & s.>X_.      .XeXfXyXoX_ I % e t t f f [ R       9.#.%XB.3.                      ",
"            @ + 6 x h c k 6 2 1 1 2 n :.,.*.y.h n wX( k.& 0 o _.5.    .X7XfX6X5X6X'.'.s % t e  .t w R         b I.7.&                       ",
"              4 k $.#.#.+ #.#.@.#.#.#.l + O X X X 7Xj.j.|.U 1 S 6.,X,X7XwXwXoX'.5XoX'.t % { t t e e w         a S & 0 5                     ",
"                7 m >.G.c 1.4.c b x =.t.>.>.@ X Z J 9Xj.{.U k k C .XwXwX5X'.|.5X6X6X|.t t [ w t e t w   6.s.7 8 0 0 0 &                     ",
"                    @.                J 6.s.+ Z      Xg.OX#Xs.M ].6X6X|.'.|.6X6X6XyX9Xe t w w t t t [ : %.>.>.,.:.0 0 0 T                   ",
"                                        H s.3 (.    g.g.    ,XyXyX6X|.|.5X6X6X6XyXyX5Xs t y w u t f w o ,.r.y.r.,.,.0 Q ^                   ",
"                                        j 7 %.V.      f.  ,X$XpX6XOXOX6X6X6XwXyXwX6X5Xt q B , e t t q @.,.M.P.y.G.N.:._.s.                  ",
"                                          M $.<.      g.,X|.fXpX6X|.6X6X6XyXpXwX6X6X|.E # P , e ; t o ,.b 2 4.&.L.W.M.;.;.  c               ",
"                                                    g.f.{.hXfXwX X6X6XyXfXyX6X6XoX'.5X' # P , e C t o $.k J.,.,.8 G Y.M.N.N.2.              ",
"                                                    f.4XfXfXwXoX5XwXfXyX6X6XoX'. X6X] oX, C , e P q y 7 J.M.%.-.8 =.G n.G.W.h.              ",
"                                                  .XeXfXfXyX6X5X6XyX6X5XoX'.'.'.E ` {.6X'.! > > P y 2 %X&.k k 4 #.%.>X%XG.d.f.              ",
"                                                  4XhXpX6X5X'.6X6X6X|.'.'.'._ T     ) 6X'.`.P ` F k q.&.k k 2 h :.%X>XF.1X>Xf.              ",
"                                                ).E fX6X5X'.5X6X( oX] I , % q       ^ 6X'.'._ T.B.*X&.k k l 2 =.M >X>X&X>X>X/.g.            ",
"                                              9.H.d.uX7X'.oX6X/ }.) V [ f } e       /.'.=XK.D.C.Z.q.k k k 4 =.%.f./.>X>X>X>X/.              ",
"                                                Y.W.3X3X.X] j.[.    D i q } s G       U A.Z.Z.Z.D.k k k 1 8 >.%.).f.>X>X>X.X!               ",
"                                                N.F.F.Y.n.( ]         g g } B a.      m.C.A.Z.D.k k k l + @.>.    ~ f.f.f.!                 ",
"                                                F.R.=XN.n.! ~           t t   2.E.E.T.Z.Z.T.K.v %.:.M.@ :.n w.        g.                    ",
"                                                N.F.R.N.n.'.~           O.;.E.P.S.Z.Z.Z.^.B.,.,.,.,.h l k :.;.                              ",
"                                                Q.F.F.N.8.'.~             *.v $.#.#.#.#.j ,.M.<.,.-.z :.c                                   ",
"                                                3XF.F.N.6.].~                 + + + + + + + n @.@.+ + x c                                   ",
"                                                2XR.M.H.:.b                     5 + + + + + + + + + : 2 4                                   ",
"                                                =XQ.,.n.M.S                         C + + + + + + + O 2 z A                                 ",
"                                                2XQ.M.n.M.6.                            N N + + + + + 4 z A                                 ",
"                                                =XY.F.;.-.                                  Z : : o o O z A                                 ",
"                                                L.B.R.;.b                                       c -.z z z A                                 ",
"                                                K.R.K.1.4.                                        7 z z z z N                               ",
"                                                &.E.q.,.x                                           3 z z z 2                               ",
"                                                &.E.n.,.x                                             2 z z z 4                             ",
"                                                2.w.q._.S                                             A z z z k D                           ",
"                                            ~ 0.E.w.P   )                                             ~ 2 2 P ( V                           ",
"                                    Z C S ;.  4.Q.Q.m k./ C B B > > > > > > p B B B B B B V P T E ) V -X7.{.6X6XK F F                       ",
"                          . . $ $ -   I 4.2X=X=Xa 7.7.L E $ - - - ; - - - - - - ; ; ; ; ; ; $ B ) G *X=Xm :X1X:X~ ; ;                       ",
"                      ; - - - - - $ / {.( =XQ.7.H.Q.Q.Q.(.B V C P B B B B > p p > p p p p B V C T T ~ G J J ~ ~ ~ C                         ",
"                          - ; ; ; ; = < # # # # # # # # #                                                                                   ",
"                                                                                                                                            ",
"                                                                                                                                            ",
"                                                                                                                                            ",
"                                                                                                                                            "
};
