/* XPM */
static char *a04fa3cae341478ef5ea81b4cbe475acgQVN3fBd9jBSkZRb[] = {
/* columns rows colors chars-per-pixel */
"64 64 18 1 ",
"  c gray30",
". c #535353",
"X c gray34",
"o c #585858",
"O c gray37",
"+ c gray39",
"@ c #646464",
"# c gray42",
"$ c #6D6D6D",
"% c gray45",
"& c #747474",
"* c #797979",
"= c gray49",
"- c #838383",
"; c gray52",
": c gray54",
"> c #8D8D8D",
", c gray58",
/* pixels */
"                                                                ",
"                                                                ",
"  ,,,,,,,,,,+ *,,,,,,,,,>  ,,,,,,,,,,  >,,,,,,,,,* +,,,,,,,,,,  ",
"  ,,,,,,,,,,+ *,,,,,,,,,>  ,,,,,,,,,,  >,,,,,,,,,* +,,,,,,,,,,  ",
"  %%%%%%%%%%o @%%%%%%%%%%  &&%%%%%%%&  %%%%%%%%%%+ o%%%%%%%%%%  ",
"  %%%%%%%%%%o @%%%%%%%%%$  %%%%%%%%%&  $%%%%%%%%%+ o%%%%%%%%%%  ",
"  %%%%%%%%%%o @%%%%%%%%%$  %%%%%%%%%%  $%%%%%%%%%@ o%%%%%%%%%%  ",
"  %%%%%%%%%%o @%%%%%%%%%%  %%%%%%%%%%  %%%%%%%%%%@ o%%%%%%%%%%  ",
"  %%%%%%%%%%o @%%%%%%%%%$  %%%%%%%%%%  $%%%%%%%%%+ X%%%%%%%%%%  ",
"  %%%%%%%%%%o @%%%%%%%%%$  %%%%%%%%%&  %%%%%%%%%%+ X%%%%%%%%%%  ",
"  ++++++++++. o@+++@+++++  ++++++++++  ++++++++++o .++++++++++  ",
"  OOOOOOOOOO. oOOOOoOOOOO  OOOOOOOOOO  oOOOOOOOOOo .OOOOOOOOOO  ",
"  ..... ....  ...........  ..........  ...X.......  .... .....  ",
"                                                                ",
"******. %&****&***# o*****&****  ***&***&**o #********&% .******",
",,,,,,. :,,,,,,,,,= +,,,,,,,,,,  ,,,,,,,,,,@ *,,,,,,,,,: .,,,,,,",
";;;;;;. =;;;;;;;;;& O;;;;;;;;;;  ;;;;;;;;;;O &;;;;;;;;;= .;;;;;;",
"%%%%%%  $%%%%%%%%%@ o%%%%%%%%%%  %%%%%%%%%%o @%%%%%%%%%$  %%%%%%",
"%%%%%&  $%%%%%%%%%@ o%%%%%%%%%%  %%%%%%%%%%o #%%%%%%%%%$ .%%%%%%",
"%%%%%&  $%%%%%%%%%# o%%%%%%%%%%  %%%%%%%%%&o @%%%%%%%%%$  %%%%%%",
"%%%%%%  $%%%%%%%%%@ o%%%%%%%%%%  %%%%%%%%%%o @%%%%%%%%%$  %%%%%%",
"%%%%%%. #%%%%%%%%%# o%%%%%%%%%%  %%%%%%%%%%o #%%%%%%%%%$  %%%%%%",
"$$$%$%  #%$%$$$%$%@ X$$%%$$$$%$  $$%%$$$%$$o @$%$$%$$%$$ .$%$%$$",
"OOOOOO  oOOOOOOOOOo .OOOOOOOOOO  OOOOOOOOOO. oOOOOOOOOOo  OOOOOO",
"OoOOoO  oOOoOoOOoOX .oOoOOoOoOO  OOOoOOooOO. XOoOOoOOOOo  oOOoOO",
"                                                                ",
"     .    .          .       .           .                 .    ",
"  ,,,,,,,,,,@ *,,,,,,,,,>  ,,,,,,,,,,. >,,,,,,,,,* +,,,,,,,,,,  ",
"  ,,,,,,,,,,+ *,,,,,,,,,>  ,,,,,,,,,,  >,,,,,,,,,* +,,,,,,,,,,  ",
"  %%%%%%%&%%o @%&&%%%%%%%  %%&%%%%%%%  %%%%%%%%%%@ o%%%%%%%%%%  ",
"  &%%%%%%%%%o @%&%%%%%%%$  %%%%%%%%%&  $%%%%%%%%%@ o%%%%%%%%%%  ",
"  %%%%%%%%%%o @%%%%%%%%%%  %%%%%%%%&&  $%%%%%%%%%@ o%%%%%%%%%%  ",
"  %%%%%%%%%%o @%%%%%%%%%%  %%%%%%%%%%  %%%%%%%%%%@ o%%%%%%%%%%  ",
"  %%%%%%%%%%o @%%%%%%%%%$  %%%%%%%%%%  $%%%%%%%%%@ o%%%%%%%%%%  ",
"  %%%%%%%%%%o @%%%%%%%%%$  &%%&%%%%%&  $%%%%%%%%%+ o%%%%%%%%%%  ",
"  OOOOOOOOOO. XOOOOOOOOOO  OOOOOOOOOO  OOOOOOOOOOX .OOOOOOOOOO  ",
"  OOOOOOOOOO. oOOOOOOOOOO  OOOOOOOOOO  OOOOOOOO+OX .OOOOOOOOOO  ",
"                                                                ",
"                                                                ",
">>>>>:. ->>>>>>>>>* O>>>>>>>>>>  >>>>>>>>>>O *>>>>>>>>>- .>>>>>>",
",,,,,,. :,,,,,,,,,= @,,,,,,,,,,  ,,,,,,,,,,@ =,,,,,,,,,: .,,,,,,",
"*****=  &***=*****# o**=****=**  ******=**=o #**=******%  ******",
"&%%%%%. $%%%%%%%&%@ o%&%%%%%%%%  %&%%%%%%%%o #%%%%%%&&%$ .%%%%&&",
"&%%%%%  $%%%%%%%&%# o%%%%%%%%%%  %%%%%%%%%%o @%%%%%%%%%$  %%%%%&",
"%%%%%%  $%%%%%%%%%# o%%%%%%%%%%  %%%%%%%%%%o @%%%%%%%%%$ .%%%%%%",
"%%%%%%. $%%%%%%%%%@ o%%%%%%%%%%  %%%%%%%%%%o #&&%%%%%%%$  %&%%%%",
"%%%%%%  $%%%%%&&%%@ X%%%%%&&%%%  %%%%%%%%&%X @&&%%%%%%&$  &&%%%%",
"#@##@#  +#@#@#@#@#O X#@##@#@#@#  #@#@#@##@#. O#@@#@##@#@  @#@#@#",
"OOOOOO  OOOOOOOOOOo .OOOOOOOOOO  OOOOOOOOOO. XOOOOOOOOOo  OOOOOO",
"XXXXXX  XXXXXXXXXXX  XXXXXXXXXX  XXXXXXXXXo  XXXooXXXXXX .XXXXXX",
"                                                                ",
"  +++++@++++. o++++@+++++  ++++++++++  +++++++++@o .+++@++++++  ",
"  ,,,,,,,,,,+ &,,,,,,,,,:  ,,,,,,,,,,  >,,,,,,,,,* +,,,,,,,,,,  ",
"  >:>::>>>:>+ &>>:>:>>:>;  >>>>::>>:>  ;>:>>>::>>& +:::>:>>::>  ",
"  %%%%%%%%%%o @&%%%%%%%%%  %%%%%%%%%%  %%%%%%%%%%@ o&%%%&%%%%%  ",
"  %%%%%%%%%%o @%%%%%%%%%$  &%%%%%%%%%  $%%%%%%%%%@ o%%%%%%%%%%  ",
"  %%%%%%%%%%X @%%%%%%%%%%  %%%%%%%%%%  %%%%%%%%%%@ o%%%%%%%%%%  ",
"  %%%%%%%%%%o @%%%%%%%%%$  &%%%%%%%%%  $%%%%%%%%%@ o%%%%%%%%%%  ",
"  %%%%%%%%%%o @%%%%%%%%%$  &%%%%%%%%%  $%%%%%%%%%@ o%%%%%%%%%%  ",
"  %%%%%%%%%%o @%%%%%%%%%%  %%%&&%%%%%  %%%%%%%%%%@ o%%%%%%%%%%  ",
"  OOOOOOOOOO. XOOOOOOOOOo  OOOOOOOOOO  OOOOOOOOOOX .OOOOOOOOOO  ",
"  OOOOOOOOOO. XOOOOOOOOOO  OOOOOOOOOO  oOOOOOOOOOX .OOOOOOOOOO  ",
"                                                                ",
"                                                                "
};
