/* XPM */
static char *_f8fbe5180744e96d3911239cc57c389lMCs3RCH6aNNbBJk[] = {
/* columns rows colors chars-per-pixel */
"100 100 26 1 ",
"  c gray1",
". c #060606",
"X c gray3",
"o c gray6",
"O c gray7",
"+ c gray9",
"@ c gray10",
"# c #1E1E1E",
"$ c #232323",
"% c #272727",
"& c gray17",
"* c gray18",
"= c gray20",
"- c gray21",
"; c gray22",
": c #3E3E3E",
"> c #434343",
", c #444444",
"< c #484848",
"1 c gray31",
"2 c #515151",
"3 c #555555",
"4 c #5B5B5B",
"5 c gray37",
"6 c #606060",
"7 c #656565",
/* pixels */
";---==-=*&%%%%$$$$%$=*&&%-%#=,====***&%%%$%&%%%%%$$$$$$$$$$@%<:===-*&%%%$%$$$$$%%&**&%$$$$%*&-2:;=**",
"&&&%%%%$$%$$$$$$$$$$$$$$$$$@=>**%&%%%$$$%$$$%$$$$$$$$$$$$$$@$,*&%%%%$$$$$$$$$$$$$$$$$$$$$$$#@*>&&%%%",
"&%%$%$$$$$$$$$$$$$$$$$$$$$#@-:&%%%%$$$$$$$$$$$$$$$$$$$$$$$$+$>*%%$$$$$$$$$$$$$$$$$$$$$$$$$$$@%:%%%%$",
"$$$$#$$$$$$$$$$$$$$$$$#$$$#@;;&$$$$$$$$$#$$$$$#$#$$$$$$#$#$+$>*$$$$$$$$#$#$$$$$$$$$$$$$$$$$$+&;%$#$$",
"$$$$#$$$$$$$#$#$$$$$$#$#$##@-:%$$$$$#$$$$#$$#$$$$$$$$$$$#$$+$:-$$$$#$$$$$$$$$$$$$$$$$$$$#$$#+*-$$#$#",
"###$#########$#######$#$$$#+-;%$#$#$$#$#$$$#$$#$$##$$#$$$$#+#:=$$$$$$$$$$$$$$$$$$$$$$$$$$$#$+*-$$$$$",
"###########%=#$##$#$#$#####+=:$###########$################+$:&$$$$$$$$$$$$$$$$$$$$$$$#$$###+*-$#$$#",
"#@@@@@+@@@@$@#@@@#@@#@##@##+&;$###########@@########@#####@o$;&$$$$$$$$$$&#$$##$#@@++######OO**$$##$",
"OOoooXXXXXXXX...XXo.XXXooX.#$*@+OOoooXoXooooOoooooXoXXooOXo #*#+++oooO+O+OoOoXXX... ...XX.. o&$O+O+O",
"OO+@O+++OOooOooooXXOooXoXO##$%@oooOoOOOOOOoX......oO@@@+OoXo$$#@@###+OXXXXXXXooooOoOo+@#$###%$$#@@##",
"111<<<,,>>::&:3<:><<<<<<1,;>>,>:>>>>>>:>:>:-%*<11122111<,>>>:::>::>>:;-*&=*;=$,223112545554444433111",
"%%$$%%&*-;>;-141221<<<1<,>><11111211<,:,<<<>*:1>>;-==***-=--;::>>:>::::::>>:*%231222>-=&*&&****&****",
"$#$$$$$$$$$@$,:=**&&&%%%%$$$$$$$$#$#$#$#$%$@$->**&&%%%%$%$$$%$%$$$$$$$$$$$$$+$>>=**&&%%$%$$$$$$$$$$$",
"$$$$$$$$$$$@#>-&&&%$$$$$$$$$$$#$$$$#$######@$;;&%%%$$$$$$$$$$$$$$$$$$$$$$$$$+$:;&&%%$$$$$$$$$$$$$$$$",
"$$$$$$$$$$$@$,=%%$%$$$$#$$$#$##$##$$########@;;%$%$$$$$$%%$$$$$$$$$$$$$$$$$$+$>;%%%%$%$$$$$$$$$$$$$$",
"$$$$$$$$$$$@$>*%$$$#$#$$##$$#$$##$##$#$#####@;:%$$$%$$$$$$$$$$%$$$$$$$$$$$*$+@:-%$$$$$$$$$$$$$$%%$$$",
"$$$$$$$#$#$@$>*%$$$###$$$$$$#$#$$####$#####@@;;$%$$$$$$$$$$$$$$$$$$$$$$$$$#$@#>=%$$$$$$$$$$$$$$%$$$$",
"$$$$$$$$$##@#:*#$#$##$#########$#$#$########+;;%$$$$$$$$$$$$$$$$$$$$$$#$#$##+$>=$$$$$$$$$$$$$$$$$$$$",
"$$$$#$#####+@=*$##$####$#$$###############@#o=-$$$$$$$$$$$$$$$$$$###########+%:=$$$$$$$$$$$$$$$$$$$$",
"+@@##@@+OoX.O&$OoOOoooO+@@+OOooXXXXoXoooooX..&*O+@@@##$###@OOOO++ooXXoooOoXo #=#+OOOOOO++@@@@@@####@",
"ooooXoXOO+oO#%$@@+ooOXXXo  .... .          .@%%OoooXXX.......             .X.$%$O+++++OOooXX...   X ",
";>,<1121<<1332<222<>,<>:-=&*$:*=&$#@@OO+#%*;;-=&****&&&&&%*&$&:;==*=-><<<,,<232:-1112<,:&;,:%#%%@$%#",
"41,<<<1455433644213431<2212<-34544433333344334322<21,,<,,>,:&35654223<2<22=-;%%*%&**=-:;::;>--21<221",
"*&&&&&%%%%$%$%$$$%$$$$$%$$$&=,=**&==----=*=*&&%%%$&%%$%%*&$#%>;=*&%%$%*$$$$#$$###$###$#$##$%$-1:;=**",
"&%%%%$$$%$$$$$$$$$$$$$$$$$$@*>*%%*%%$$$%$$$$$$$$$$$$$$$$$$$@$:*%%$$$$#%$$##$$%#$$$##$$#$$##$@*>&&%%%",
"%$$$$$$$$$$$$$$$$$$$$$$$$$$+*>&%$%%$$$$%%$$$$$$$$$$$$$$$$$#@%:%$$$$#$#$##$####$###$#######$#@&;%%%$$",
"$$$$$$$$$$$$&$$$$$%%%$$$$$$@*,%$$%$$$$$$$$$$$$$$$$$$$$$$$$#@%;%#$##$##$###&###$#$$$$#$###$#$@&:%%$$$",
"%$$$$&$$$$$$$$$$$$$$$$$$$$$+*>%$$$$$$$$&$$$$$$$$$$$$$$$$$$#+$-%$$#######$###$##########$####@*:%$%$$",
"$$$$$$$$$$$$$$$$$$$$$$$##$$+&:&$$$$$$$$$$$$$$$$$$$$$$$$$#$%+#-%###################$###$###@@@*:%%$$$",
"$$&$$$$$$%$$$$$$$##$$$$$$##+&>%$$$$%$$$$$$$$$$$$$$$##$$#$#@+$-*$$######@##$###$############@+*;%$$$$",
"$$$$$$##@#@#@###@O+@######@X%=$###$#$###$$#$#$$$#$###@@@@@Oo$*%@@@@@@######@@#@#@#@@@#@@@@+oo%*#$$#$",
"oOoooXoXXXXo.OXXXoXoXoXooXXO#%+oOoXoXoXXXXXXX.XXXXX...... .O$%$++O++OOOo@oOooooXoooooXooXoXo+$%$+Ooo",
"***%%%@#===*%-::=&%&&=---==;---;;;;:=**&%@+#OoOooOOO+@#%=*-::;:;-;::;;==*-*&=%*112321,<<>-;;>>:;::;;",
"<,>::>:;:-,>*1411<<,,>>>:-=***&&&*&&-=&&&=;>,,4122133<>::-:,,<<,:--*=*%%*-::;=1:;=*->,,:,42<<,,:::--",
"*$$$$$$$$$$%#,;=*&&-&%%%%%$$$%$$%%$$$$$$$$$$$>>=****%&%%%%%$%$%%$$$$$$$$$$$$$%,*&%%%%%%%$%$$%$#$$$$$",
"$$$$$$$$$$$##>-&&%%%%$$$$$$$$$$$$$$$$$$$$$$$@;:&&&&%%%%$$$$$$#$$$$$$$#$$#$$%#*,&%%*$$$$$$#$#$$$$$$$$",
"$$$$$$$$$$$#@>=%%%$$$$$$$$$$$$$$$$$$$$$$$*$$@;-%%*%$$%$$#$$$$$$$%&$#$$#$$$$$@*,%$$$#$$#$$$#$#$$$$$$$",
"$$$$$$$$$$$#@>*$$$$$$$#$$$$#$#$$$$$$$$$$&#$$@;=%$$$$$$$$$$#$#$#&#$#$##$$$##$@&>%$$$$#$$$#$$$%$$$$$$$",
"$$#$$#$$$$$@@>&$$%$#$#$##$$#$$#$$$$$#$$$%$#$@-*$$$$$#$##$#$#$$$#$#$$$#$##$#$@%>%$$$$$$#$$$$$$$$$$$$$",
"#$#$$$##$#$@@:&$$#$$$$#$$#$$$#$$#$$#$$$#$#$#@=*%$#$#$#$$$#$####$$#####$#####+#>&$$#$$$$$$$$$$$$$$$$$",
"#########$#+@:&$###$$#$###$###$#######$$##$#+--$$############$#####$########+#:&$$$$$$$$$$$$$$$$$$$#",
"@@@@@#@#@#+o+;&$$####%########@###@####@@@@OO=*$@######@#@#@##$############+O@;&#$$$$$$$$$$$$%$$$#$$",
" .    .  X .o*#O++++++OOooooXooooooXXoXX....X%&+@++#+++OOOO++OoooOOoXoO++Oo.o$*&O@@OoXo@@ooXXXoooo..",
"$&&#++@###@@%*%++OoooOoooooooooXXXoXoXoOO+##$$%#O+ooooXoXoXXXXoXoXoXoXXXXXX+#$&%##%&&*=#%++@o$#%$###",
"54423332233221<,>>::,<::>><,*>,,<22222334333422211<<,:;-;;;;$;<111<>134121122334344343222<2,;2143444",
";=***%%%%%&*-;:;:-=%&$%=--;%;42<<,,,<<:::;-*&$$%&&&&%%&&=-:;*43<,<22:>*&>;,<1<<<<,;&&&%&==;%%:>*****",
"%%$$$$$$$#$$$#$$$#$$$$$$$$$@=,&&&%%%%%$$$$$$$*$$$*$#$$$$$$#+*<:&%%%$$$$$%$$$#$$$$$$$#$$$$$$#@-:&&%%%",
"$$$$#$###$##$$#$$$$#$$$$$$$+=,&$$$$$$#$#$$#$$$$#$$$$$%$$$$#+*,;$%#$$#&#$##$#$$##$$$#$$$$$$$#+;;%%%$%",
"$$*##$#$#$$$$$#$$$$$$$$$$$$O=,%$$$$#$#$#$#$$$$$$$$$$$$$$$$#+*,;$$#####$#$##$$#$$$$$##%$$$$%$@;=%$$$$",
"########$####$#$$$#$$$$$#$$+=,%$$$#$$$$$$$$$$$$$$$$$$$$$$$#O&>-$$##$#$###$$#$##$##$$$$$$#$$%+:*$$$$$",
"$######$###$#$#$$#$$#$$#$##+*>%%&#$$#$$$$$$$$$$$$$$$$##$#$@+&>-#$##$#######$#$$#$$%$$#$#$$$#+:&$$$$$",
"#################$######@#@O&:%$$$$$$$*$$$$$$$$$$$$$$$$$$#@O&>-########$$###$########$#$###@+;&$$$$$",
"#@##@#########@@####@#@@@@@o&-%$$$$$$$$$$$$#$$#$$$$$#$$##@+O&:=########################@###Oo-%$$$$$",
"ooo+oXXXXXX......XXXoOX.....%%+@++OoOXXo.XX...XXX+XOO++OX. o%&$ooXXXoXXooooOOOOOOOOOO+OoXX. o&#+@@++",
"#++O@+##@+++++O+OOooXoOOO+@#%%++O++O+++@++++ooOO+@ooXXX.oXoO$%$OO+OOo+#+ooXX.       ..XXXoO+$%$@Oooo",
"21215112211<=;312233222121<<<<<<<,>>>>>>>>;:&%<256655212322,>>>:>;:>::;:>,,>=$&&***-:;;;>:>,<1<1<<,<",
"*=-;;:;==-:;=1>>;-=&%%%%%%%&%%%%&%$&&$$%$*:;;=263<<<<2211<<<<<,,>:;-=;,11-***:3<4333211>:;-**&%%*%%=",
"$$$$%$$$$$%##>=%$$$$$#$#####$#$$#$$#$$$$$$$$#*<-**&&&%%%%%$$%$$%$$%$$%$$$$$$@=,***&&&%%%$$$%$$$%$$$$",
"$$$$$$$$$$$##:&$$$$##$##$##$$##$$#$$$$$$$$$$#=,=&&%%%%$$$$$$$$$$$$$$$$$$$$$$@&>&&%%%$$$$$$%$$$$$$$$$",
"$$$$$$$$$$$#@:%$$$##$#%$$$$#$$$$$$$$$$$$$$$$@*,*%%%$$$$$$$$$$$$$$$$$$$$$$$$$@%:&%%$$$$$$$$$$$$$#$$$$",
"$$$$$$$$$$$#@:%$$#$$#$#$$$$$$$#$$$$$$$$$$$#$@=>&$$$%$$$$$$$$$$$$$$$$$$$$$#$$+%:%$$$$$$$$$#$$$##$$$#$",
"$$$$$$$#$$$#@:$$$$#$$$$##$$#$$$$$$$$$$$$$$$#@*:%$%$$$$$$$$$$$$$$$$$$$$$$$$#$+%:%$$#$$#$#$$$##$$$#$#$",
"$$$$$$$$#$$@@:$$$##$$$$$$$$$$$$$$$$$$$$#$$$#@*>%$$$$$$$$$$$$$$$$$$#$#$$$$#$#+%:$##$##$##########$#$#",
"$$$$$##$###++-%$$$$$$$$$$$$$$$#$$$$#$$#$#$##+*:%$$$$$$$$$$$$$$$$#$$$$#$#####O&:$####################",
"@@@@@@#@#@@XO&$$$$$$$&$$$$#$##$#####@###@@@++%*#$###+O+++++++++O+Oooo+@@@@@+X&=@@@@@@@+@++@+++++++++",
"XXXXXXXXX..o#%#++++OO+OOOO+O+OOOOOoO+OO+O++O@%&@OOOOO+OooXXooXOOOO++o.X.XX..O%%+OOoooooXOXXXooOO@@@+",
"-==;---==$$;--*%%%%%$$%&*&&&$->-*-;==;;-*=-::::::;:**--;==:-&=:<23321<,>>,<<11,>>:-*;-=-:===$&-:,,<<",
"554455553111333131:==,,==:,;&33211<><343232,>:>::,,1<<<<,>;=;1<2,;-;,<21<,,>>>,3321;:><<31<>&255431:",
"*&&&&%%%%%$$$%$$%$$$$$$$$$$@&>=*&%%%%%%%&&%$$$%$$$$$%$$%%$#@=<;*&&%%=%%$%$$$$$$%%%$$$$$$$%%@$,:*&&&%",
"%%%%%$$%$$$%$$$$$$$$$$$$$$$+*>**%%%$$$$$$%$$$$$$$$$$$$$$$$#+=,;&%%%$%$$$$$$$$$$$$$$$$$$&$$$@$>=&%%%$",
"%$%$$$$$$$$$$$$$$$$$$$$$$$#+*>&&%$$*%$$$$$$$$$$$$$$$$$$$$$#+*,-%%%$%$$$$$$$$$$$$$$$$$$$$$$$+$>*%$%$$",
"$$$$$$$$$$$$$$$$$$$$$$$$$$$+*:%$%$$$$$$$$$$$$$$$$$$$$$$$$$#+*>=%$$$$$$$$$$$$$$$$$$$$$$$$$$$@$>&%%$$$",
"$$$$$$$$$$$$$$$$$$$$$$$$$#$O&:%$$$$$$$$$$$$$$$$$$$$$$$$$$$#+&>=$$$$$$$$$$$$$$$$$$$$$$$$$$#$+%>&$$$$$",
"$$$$$$$$$$$$$$$$$$$$$$#$$##O&:%$$$$$$$$$$$$$$$$$$$$$$$#$###O%>=$$$$$$$$$$$$$$$$$$$$$$#$$#$#+$:&$$$$$",
"$$$$$$$%$$$$$$$$$$$##$$####O%;$$$$$%$%$$$$$$$$$$$$#$$######O%>=$$$$$$$$$$$$$$$$$$#$$$#$####O$:*$$$$$",
"$$$$%###+OooO@@+O.+@@+O+OOXX#=$$$$$$###@#OO++@@@@##@@##@@@+.#-&$#$$##@@++++@@@@######@@@@@O.#*%$$$#$",
"+oooXoXXoooXoX.XXXXo.XXX..X+$%@ooooXXXXXXXoX..           .XO#*#OOoooooooooXXXoXXXXoXXXXXXXoo#%$ooooo",
"$##$$$%$#%$&$$%&$$#@$$%$$%%&%%$$@@@$$#$$$%$%$$$#@%&**%%$$$$%*&*&$%&&%$$#$@@$#@@&$$$&%&%%&=-=&*%$#@#@",
",>>;;:<<<<<,=,632344443454:132332,<12311<<<:%;333333322211<<<,<<,,<,:>;=*=-:;&36<2214444545544435532",
"%$$#$$$&%%*&*<2>,>::;---***-==%%*,21>-*-><>;&:,--****&%%$%%%*--=-=-=*&&*-;:-%&,121<:=&&&&%$%$%$%$%%%",
"$$$$$$$&$$$@$<;***&&%%&*%$$$$$$$$$#$$##$#$#@#;:&&%%%%%%$$$$$%$$$$$$$$$$$$$$$+%>:**&%%%%$$$$$$$$$$$$$",
"$$$$$$$$$$$#&,-&=%%$$$$#$$#$$$$#$#$##$$#####$;:&%%%%$&$$$$$$$$$$$$$$$$$$$$$$+%:;&&%%$$$$$$$$$$$$$$$$",
"$$$$$$$%%$$@$>=%%$$$$$$$#$$$$##$#$$##$#######-;%%$$$$$$$$$$$$$$$$$$$$$$$$$#$@#;:%=$$%$$$$$$$$$$$$$$$",
"$$$$$$$$$$$#%>*$$$$#$#$$$##$$$#$$$##$##$####@;;%$$$$$$$$$$$$$$$$$$$$$$$$$$$$@@:-$%$$$$$$$$$$$$$$$$$$",
"%$$$$$$$$$#%%>*$#$$##$###$#$#$####$$####$####-;%$$$$$$$$$$$$$$$$$$$$$$$$#$#$+#,=$%*$$$$$$$$$$$$$$$$$",
"$$$#$%#$###@#:*$$#$%#%$$#$####$#$####$######+-;$$$$$$$$$$$$$$$$$$$$$$$$#$###+%>=$$$$$$$$$$$&$$$$$$$$",
"#$$##%$$###O+**####*@$#########@@@@@#@##@#@Oo*-$$&&$$$$$$$$$$$$$$#@+@@@@@#@@O%;&$$#$$$$%$$$$$$$$$$$$",
"oO+O+OooXXXXO&#OoXoXoXXOO+ooXX.......XXXXX. .&&ooo#++++++Oo..XoooX..XXXoXX.X $*#oooXXoXXXoOooOOOOOoo",
"+OOO@$++#@@$=&%#&#@+OoOoXoXooooXXX.      .X+$%$@+OOoooooooXoXXo   .     X++@X%%$@@$$$%#@++OOooXX..X.",
"23476664344544354433331<,>;,&<,<:-=*&%%&-;>,>,:--;;;===*=*>=%>322<<1124442234321<433322<><1,*$=-&;;=",
">;-==--,,,>:;1,,-=><,:->>,1,;2333544444444343211<:1,:>>,,>>-%2332<;;:=>*=-$&&$$$$$%$%%&&***-=;411<,>",
"*&&&%%%%%*$$&$%$%$$$$$$$$$$#=>=&&&&&%%%%%%%$%$%$%$$$$$$$&$$#$>-&*%%%$$%$$#$#$###$###$##$$##$#-,-*&&&",
"%%$&$$$$$$$$$$$$$$$$$$$%$$$@*>&%%%%%$$$$$$$$$$$$$$$$%$$$$$##$:&%%$$#$$#$$#$$$#####$##$#%##$#@*:&%%%$",
"%%$%%$$$$$$&$$$$$$$$$$$$$$$@*:&%$$$$$$$$$$$$$$$$$$$$$$$$$$##$:%$#$#$##########$$$##$#$####%#@*;%%%$$",
"$$$$$$%$%$$%$$$%$$$$$$$$$$$+*>%$$$$$$$$$$$$$$$$$$$%$$$$$$$#+$;%#$####$###########$#$$#$#$##%@&:%$$$$",
"$$$$$$$$$$$$$$$$$$$$$$$$$$$+*:%$$$$$$$$$$$$$$$$$$$$%%$$$$$#+$-%$#$$######$##$#$#############@*:$$$$$",
"$$$%$$$$$$$$&$$$$$$$$$$$$$#+*:&$$$$$$$$$$$$$$$$$%$$$&$$#$$#+$-&############################@+*:%$$$$",
"$$$$$$$$$$$%$#$$$$##$##$#$#+&:%$$$$$$$$$$$$$$$$$%$$#$#$###@O#-*##########@##@############@@@O*-%$$$$",
"#%$$##+++++OO+++OXo++@@@@#+.$*@++++++++@@@@@@#@@@@@+++@O+OoX$&$@+@@@@@@@@@@+@@+++++@+++++OOOo%&#$#@#",
"ooo@O+o+XooooXoo+ooooOOOOoX+$$@OoooooXoXXX....... ..  .O.XX+$%$@++@@+OOOOOOOOOOOOOOooooXXooO+$%$@++O"
};
