/* XPM */
static char *result[] = {
/* columns rows colors chars-per-pixel */
"100 100 77 1 ",
"  c #140F0E",
". c #14120D",
"X c #19150F",
"o c #140F10",
"O c #161511",
"+ c #191612",
"@ c #1C1A15",
"# c #1B1518",
"$ c #1F1D18",
"% c #211B16",
"& c #221E1A",
"* c #281F1C",
"= c #25221D",
"- c #2A231E",
"; c #272520",
": c #2A2621",
"> c #2E2923",
", c #312724",
"< c #332B25",
"1 c #382D26",
"2 c #362D29",
"3 c #392E2A",
"4 c #383027",
"5 c #37312A",
"6 c #3B332C",
"7 c #3E3631",
"8 c #41362E",
"9 c #43392F",
"0 c #423632",
"q c #443A34",
"w c #4A3E36",
"e c #463E39",
"r c #4B3E39",
"t c #503F3B",
"y c #4B4136",
"u c #45403A",
"i c #4D423B",
"p c #514537",
"a c #52453D",
"s c #55483F",
"d c #5A4C3E",
"f c #4F4640",
"g c #544641",
"h c #5C4744",
"j c #554A42",
"k c #5B4C44",
"l c #5E4D49",
"z c #5F5146",
"x c #5E5149",
"c c #604E46",
"v c #644E4B",
"b c #625147",
"n c #685747",
"m c #635349",
"M c #68574D",
"N c #67584E",
"B c #6A594E",
"V c #675550",
"C c #695651",
"Z c #665A51",
"A c #6D5B51",
"S c #715E55",
"D c #736156",
"F c #796556",
"G c #7C6857",
"H c #766259",
"J c #79655B",
"K c #7D695E",
"L c #7E6A60",
"P c #816C5E",
"I c #84705F",
"U c #826D62",
"Y c #867166",
"T c #887267",
"R c #877368",
"E c #8C766B",
"W c #8E786D",
/* pixels */
"....==nTWWEEEK+@0i.@iBYWEEWEWEUM: oOxcHHHHYEWEWEWJSJmOOH2OjxmBHJDJDDA>$.0AUWEWEEWEPM ==;====@O+Oooo.",
"====,MYTEEWEEWBX$.@jBRRWWEWEEWWTAw  elHHHHHJEEWEJSSSb.0TR>OjmxzAFDHAb&=.fmSEWWEWEEEKm ===X6azjaa5:.O",
"===5AKPYEWEEEWUq+=5jBURREEEEWEEEECg.+cSSHHHHDJJSJJJmh+mTYJ+.ybbbmmmxm+;$<cHJTWEWEEWEGw.=.zBJYUTPUUB=",
"=$eAUPYWEEEWEWJAO=0dAFEWWWEWEEWWWTmt.yvSHHHHJSJJSSmv@@BHDB6@+4bmzmmnj+:=+hVSJTWEWEEWEA%#+jAJRRTETUM.",
"$jSKUTEEEWWEWUJA+=$jZDJEEEWEEWEEWYSy++lbAHJHHHJDMmp+@;ccb4+-=@.+$==@OO+$&jcDDJREWEWWETs.$aNDHYRKJS6-",
"jJPYTEEWEEEEUJHlO;OixDJJEWEWEEEELJN+:$6cbmSHHDnmc-+&>$%X@+-<,:+O+==;-yZ4@,lmDDJUEWEWWEH+=6kDHHHJSa@@",
"JRYREEEEWEEUJJB%=>=XkmDHJREEWEYDJB<=>=.jbbbcmmz<#%=%==.==iSPPGSBx5.$@ZLB$OjlSJDSSJUWEWRw@+kDHHJBa++k",
"WERWEWWEWRJHHm-&=.+%<lnDDJYEYJJJSi@>@...lmbba&++3dMSDB&=.lPPUTTYLFx+@ZSxO+;lcBDJSJDJJJJA+$imDDmsO+lB",
"SJJKJKJHJJHSm>$@rr%X+wbnDHHHJJFDl+;@wv.. =@+.-kADTYPUY0=-mUTEWRWEEG;.xj$++.>cbbAJHHHHHJA&&@hbbaO+kSD",
"JSJJJHJJJDnb<@@mPPA,+.jbnHHHDDDm+=$kAJk.&.+&lBFTUYRRWRd=enUTWWWWEWJ@@@.@w& .>bbbmAHHHHAc1+$9l6+OkmDA",
"ASSSSSSBbbb<O+ZLUUEG5..lcbDHHAb%+&xJPUJ===.lDYYTEEEEERj$rmRWWEEWWWS@;$OxJDs..=cbcbvAAbmm@$=+O#@ilklm",
"cvmmmmmmmm,+OxYUUEEEJ5.+lmbbbm=O&NJKTTYl+=-jBYRREEWWWRj@hAHTEWEEWEf+;@iYYUUb@.@kbbbmmbm%+O=O=;:kkhmb",
"mmmmbbmcm=+@aRYYEEEWES:.+bbbm=O$NUPYWWWSO=<zSRWWEEEEEJa@vASJTWWEWJ-@=2JPUEETA:.+rmmmzi.+9BDs+@7ldbbb",
"svvvvNvl$+=3JKYRWEWEEEM@$.kc@O@mUUTEEEWJ-=qmDJREEEEUHB4+kSSJHJTWRA+-XBPUREEETS2.@&ji@+=ZKRKP6+..+:6i",
"O.XXOOOO$-+NKYTEEWEWEWUmO&.O+$kYUUWEWWEUw$emDDYERJJJAm%+kcSJSJHHJq+@kGPREEEWWES3.=+.$7JLUKKJm@===$=@",
"..++$;=-;@iAKTEEWEWEWEEJr.=$$iLKUEWWEEWUk+ibDHDJJJDnn6@%ljmHJHHHNO@6SPTEWWEEWWTS>.==qADVDDBk@>$O..  ",
"HDNm7O===XlBYTEWEEEEWWEEA$$=-DUUEEEWWEEEn+rbDJDJAmma++==ikzbDHHAw@@mALWWEEWEEWETA+$+hMMBnl-+%*3pzzNB",
"WRYLB3+==,hBUEEWEWWEEEEEJi++zKUREWEEEEWWn+5vAAmbmi@#====.gvbbNNm++aDMKRWEWWEWEEWUq+.gjvg&++wvMABSRYU",
"WWRETS@&&2kADRWEEWEEWEEEHi@$nJRWEWWEEWEEB+=cmzz7#@+-25%.@O2xmcm-+=mBSHYWEWEEWEEEEj$=+,+@;$6jxMSSDYRE",
"WEWWWLkO=&kADPEWWEEWEEEES3&0BARWEEEWEEEEA++73@++<snAJGPA7..++%++.slBHHHYEEEWEEWEJi@=@@sa@$,klSDJFDEW",
"EEWWWED,@.hnDDTWEWWEEWEKS-&gASREWEEWEEEKA+-%$#iBAUYPUTTTYD5.@&@:&vhDDHHHTWEEWEWUJi$OqSKU-=.jbbADHHJR",
"UWWWWERA.+rkSJHREEEWWETJB+@lASUWEWEEEERJA+-O6mAKYYTREEEWRWLj.@;@ykkDDHHHJUWWWELJJ7OjDUPYA@=+ibcmDHHD",
"HJURWWWUe.%cmHHHEEEEEEJJN+&mBJDREWWEERHJn+$-kAAUREEEEEEEWWWLj.=.lsmAHHHHHHJTUJJJJ>=BKURWU===@=kbbnDH",
"SHHHKTRWS@.gbSHHJUEWTJJJl+6MADHUEEEWRJJJz+OzvASEEEEEEEEEWWWLm.$+ykvmDHHHHHJDJJHSD+6FYEWWRe$&@@.:kbbm",
"mmSDHHJKUlO:lcDHJHJSJJHHr#yADDHJEEEUJJHHa%%knSDREWEWEEEWEEEJn+==-lbmnSHHHHHHHHHHB@sJYEWER7=.pg-.+:lb",
"hbmnSHHHJH: dbMDSJSJHJDA:@hADHHHFRJJJHHH0%6hADDLEEWEWWEEEWWHr+:=.abbmnHHSHHHHHHHl#mUTWEWK@=8DPFlO#+=",
"O%abmbAHHHS.-kbBSJJSHHJm++lcDDHHHHJHHHHA,@jjADJJTEEWEWWEEERA-$@@=XkbmbmHJJHHHHHS3+mUTEEUA@@nKUEUM.=$",
"=$.+6vmmMDHp.smbASJJHDDdOXclmHHHHHHHHHHm@+mjSDHHTEWEWEEEWEPN+=5:..=zvbbmSSHJSAbb+@mSTWUJ0&iUUTEEB.==",
".+$=+.:gmbmC&+zbvvmbbbm<+.hhbbSHSJSJHSmm++mkASSJPEEEWEEWWEDq@2DJp..<bmmbmMmmmmma++nAHJJM@@BLUWEJg@-.",
"xi4-OOO+X2gm:.,xmczmmmm+&.gkbbbmSSJSMmm,+OljvSJSHEWEEEWEERB@+BUKYd  5bbmvmmmnmr+@@mAHSAh@6FPERKS@=%a",
"WTUPHNy>.O+++@.4bmmms6+O:@.>zmbbvmmmny++=+6kcMJJSUEEEWEWEPs+yJPRWEgO.=lmmmca,.++:@lMHSm*+mAAJHJa+-AS",
"WWTTRYULAm3.@=;..X.O.O$-===+.@0kvmk3+.$:==+hcmSSJJYWEWEETS*@SEYEWWR0.X.++X..@&;:&+hlmmk+*MMHSBm@%mBS",
"WEWEWEEETULnw +=*%%%0ww3;OOOO@.++..++@$40O+ilbmDHHHJJJJJHx+pUURWEEWJ&+===========.izbm@+uzkmbm4+jAAK",
"EWEWEWEWWEERGgO;&XrBSSJSAnlg0&..@@=$qALKJn+@hbmBHHHHHJJJS=+DRYEEWEEUN.==@5md:.&==&..+.++6ijfi,+-nHSK",
"EWWEWEEEWWWEWM+=+wBBSPRTYYUUDnmrO$=uJKYLUY2OqzmbBHHHJDDJl+rUUEWEWEEUM+==>ALLFN-+===+OOOOOO++@=$kSADJ",
"EEEWEWWEWWWWUv+$<lBSSUEEEWEEERUHz.=5DYEEWESO.dbmbmmAASDB-+BUUEWEEEEKm+=+NLLRRRA:==:ajmgw=.+&==+zASHH",
"EEEEEWEEWWEWJ4$+hkBSSREEEEWEEEWERb.=NUEEWWU%@+lbmbbbmmnj+4BUEEEEEWESe=+kJKTWEWY2&+nKUPUUJM6.&&7NASJH",
"PEWEEWEWWEWUB++:kdAHSUEEWEWEWEEEWY: zDJJHJJ3$$.,lmbmbbz$@mHDEEEEWEYM+-0DKREEEEY==wDUTEETTTA-=OkAAHHH",
"SEEWWEEEWWWJe+$5klmDJJEEEEEWEWWWWTj+wADHDBz+:=$+.%qzbx7+&mBJTWWEWEJr&-CLYRWWWEJ+$NUUEWWWEEJ7=+knSHHH",
"JSEEEEWWEWYCO@=;lcmASSREWWEEEWEWWKk+@lNmm,+-@qks>..++.+-qAADYEEWEJA@$kJKTEEEEEk+3JPTEEWEEEK8&3dkHHHH",
"JSSUEWEEEEH0+:=.cbmbDJJTWWWEEEWWUx@&$3q*+&:$kBKUJB7O$==$jBDDJRWELS0$6BKTEWWWEH4+dUUEWEEWEEP8+rkcNSJJ",
"SJUSSUEWEPN+==@.acbmmDHJSUEREWTKg+$:=@.+X%=+hBKTEELz-$=.jMDDHTRKJxO$lAHREEWRJA++mDTEEEWEEWK2+djbmMSH",
"JSJJJSSSJS-$$i>.-kbbvBHHSJHJSHS4@=>@.:yle..$qMJREWWEFqO$,hDDDJJJA>$@zBDYEWRJHs+>ABTEEWWEEES2+kdbmcBJ",
"SJJSJPSJJg+$mLD= sbbmmASJJSHJv%@;+=jNAJKLk.@XlDLEEEEEFy+.8bDHHDAgO>OdADHJKJJM&&rBAJEWEEERJA*XhcmmmbM",
"BDHHSHHHmX@mUUUH.*lmmmbmAAAn7+$@2nNJKKYTRLs.+4nHJKRWEDxO=O5mMDBm+;:+kADDHJDMjX=jASHJWEYKSSn++lkmmmmb",
"mMDDJHJv-XjJUUERy.ymmbmcmmg+++6mAJPUTREEWWF=..aADJDJFN<=-=O-vbb=@:=OrmAnmcml+$+bMHHHDJJSvMz++acmmmbm",
"mbmSJSv0+8DUUREWG@.hcmmbg$++<xAKKYREEEEEWWYj+@.cbNBAx-==O.++.<=X#O.+O:21,#++@>@lbASSSMmvj1+$+o:jvbbm",
"mmbcvmr#*AEPEWWWWy.-bc9%O+&lMHHUTERWWWWEEERA+$+&bzz6+$+7dn9.$=.=ysl&&%====::-==jlbmbs3%@+@-:=@ .@4sv",
".:208-O@lJURWWEEEFX+..O=+wkDSATEEEEWWEWWEEJB+$=+.+++<cBSHKGa.=%DTYJ+=.-><,=++$+$=+OO++O+@O...O$$X.X+",
"++++.+=0nKTRWWEWRD,$$$-OjzkBDJEREEWERWEWEKJb+;==+OqNSGPUTTRP0..lADy$5AKJKKJNz8O===$O$,9yjxzzxs+$===$",
"zj0=+=+lmURWEEEUJHa@==.ukkkDDJRWWEWEWWWTHJC,+;++yNDLPTTEEEEED-++e8XeDKKYTTYYYB=$.5aznBDJKJKKLJpO==+i",
"WRKHl.&hlUEWEEJJJH,&==O5dkbnHHURWEEEWWLJHHk+;@anDLLYTEEEEEWEUM+==;6AJLRWEWWREUq$-bDJYIUYREREREx+=$gS",
"WEWRY,+kkDTEUJHJSg@>;&=.jcmbDHHJJUUEUJHJJm#@<cBHPYREEWEWEEEWEJw.=&vBPTEEEWEWETa+wAJYREEEEWEEEWm+==kL",
"EWWRWn+glSJJJJHSl+:&oOO&XkbbDDHHJHSJJJJHM2@@kBAUTEWEWEWEWWEEETMX$%lBUEEEEEEWETs+pBHREWEWWEEWEEzO=yNL",
"JUYYYJ+,knDJJHMl+;+>jxwo@@zbnHJHSJJSHHJAs+$imBDTREWWEWEWEWWEWEA,@.kADREEWWEEWTk+jAHYWEEWEEEWETj+$kBD",
"JJHJHD:+jcDHSml+$&jBDYUw..2bmAHHJSJJHHSzO=+kNAHUEWEEWEWEEEEWWTM2$+iMHHEEEEEWETj+mADHRWEEWWEEEK6#$jBD",
"ADSAnb5=qcbnbk++6MJUUTTT7oorbmDHSJSJSDm%$=5kbDHHEEEWWEEEWEWEEUm%=$=lDDHEWEWWEKjObDDHJWWWWWEWWD&=%jkN",
"0772>$+>.kbbe..aSYUYEWEER>.okcbAJSJHJv,+>.yjmDHHYEEEEEWWWEEWWJm+:=.kSDJDRWEWRJs+lADHHJRWEWWRKA+>&+-5",
".O++@$=;=@a%+.kHEUTEEEWWWL&O+lbbMSJSm6+:=.zjbDHHSWWWEWWWEEEEEBg+&O=1bHHHHPRRJDaOknHHHHHHHJJHHa@:==@@",
"aatge7=.+@ $=aHEUTWEWEEEEEA. -bbvvbm0+;-=.slbSHHSUTEWEWWEWWEKm=@2N%OkAHHHHHJJN4+skmDHHHHHHHHm@-@.&<0",
"JLLKJDBB$+==:cUUTWWWWEEWEWUm .2bbmzr+;:=$.jkbbDHSJJJLLSUKKJJSm+@ABl+2zBAHHJSSm&&wlbbmSHJHHAm*+XwlnAA",
"WRTTRTRPm.#&wlPRWEWEEEWEEUJJi..7bm0+&;++&..jbmbAJSJSSJJSJJJJM2+pDBD0.jbbmmmmmeX= qmbmmMADnm<+@wbBKUU",
"EWWWEWWWJ6 @wkUREWEWEWWELJJJS3O.--+$;.&>.. .,cmvCSSJSJJSSJHSl+&nHSHSX%lbxma1++&=#.+0mmvbbm2+-%lMKTWW",
"WEWWEWEWRBO+wkAYWEWEEEUHHJHHJm@+..$=.iKLKn4...,hvvvASSJJJSDm:@6ABHHHw$..+.+X+-0i5$..+@4as=.=+ihATERW",
"EEEEWEEWEH:.3knSJUWETJJJHHHSJSl.$==.aJYPYYUJyX+O@wbnmmmmmcmw+;ikAJHHD+==&+1kMSSKPDnq%o+OOO==.knATEEE",
"EWWEEWEEWLl.&hmDDJJJHJHJHHHHJSm0 =.yDYYEWEETYHeO@+.-ixvbmmi+=;.7mADJN6&=.mSSDUUYTTYUJm6X@==+2jADTEWE",
"EWEEEWWEWEA+.ccnSSDJHHHHHHHHHDbj+ 0BLYEEEWWEEEYmO@&#+O+->&+;:&&#+:jxmx@&:cBJTEETWEWEEYGn0.=.akADRWWE",
"WEEWEEEWWEH2.slbSJJSHHHHHHHHHNmp+&mBJREEEEWEWWWJaO;&+O..+$&:+6g6=.+@&,+=<cJREEEEEEWEEWWUm.$.klDDTREW",
"EEEWWEEWEWJk+:kmmmmASSHHDJHFmmv,.abADTEWWEWEWEWKg%+6szNmBz-@+jAAPHc>+&=;,kDREEEEEWEWEEEWBX=,kkDDHRWW",
"WWEEEWEEWEJn+.jbmvmmmmbbbbbmmml.=2bMHHWWWEEWRWWJ3=2BJKUUUInO.jBDTEPPSqO&:sALEEWWEEEWEWWEB.=ikjSDHJWW",
"EWEWEWWEEUJA#+%zmvvcvmmmzgpq4<+@:.kbAHDYEEEWWWWA+%vJUTRWEEY2OjBDTEWEEPj.+jCSUWWEWWEEWEWWB++bhcADHHHR",
"EEEWEEWEEDJA2$.X>>>:%X+O.+OO+$=-==$klAHHJJKUYULs@6SKTEWEEEEj+jBDGEEWWWTs.4vSSEWWEEWEEWEWA++bkbmDHHHH",
"SYEEEEEESJJCe@=$+..+O+++++@&,,,=.+@6zzAHHHHJHJA&+lJUTWWWEEEC+imDHRWWEWEU3.gmSHEWEEEEEEUJB+=bdbmDHHHH",
"SJJEEEEUUSSv=&=+>20ryjmvNAAASSSMj+.+axcNHHHHHAh+=bJYEEWWEWWJ$4lDHJWWWWEWJ@.kmJSYRRLLDJJHB+,ckbbDDHHH",
"SPSJUEYJJHvcO==hdjvBSJPJUUUUUYURJm@.OklcmHHHDm%@rAAREWEWWWWL,-hBSJHJUWWWWm.%mmHHJJJJJJHAz+6bbbmnDHHH",
"SSJSUSSJHMv*O%vmAGURTTTTTTTWEEEWEUN%o+vmbmASmi+$kSDUWEWWWWTSsXlcBDHHHHJKLH4 &bmHJSJDAmmmw+0lbbbvmHHH",
"USSJJSSJSms.+jlJRTETEEEEEWWEWWEWEWKN+.@bmbbbm+==kBSJTWWWELSLv+hlcmDHHHHHHAm+O:lmmmmmmmg:++:cbbmbbmDH",
"SSJSSJJSmm+OqcBYREEEEWEEEEEWEEEEWWUHz.@@mbbb5@:0kSSHJEWUSSLSMX:cvmbNNnmbmmx+$.@iff7:O++@=&.lbmbmbbbn",
"CBSSPSSMm3+@cbAHUWEEEEEWWEEEWEWEYJJJAu.+XcbjO;&gdAHHSJJSLJSLvXX&wpkskaae2&+.;=+.O++$=;>===..yvmmmmbb",
"vvMMASCvs.+gcbDDJHGTEWEEEWWEEEUJHHJDb@X=& 0+=:+ljnSJJSSLSJJvv&&$X+++OO.+@=::;==$O0q2;+.+&==@.@abbmmb",
"mnmmmbmzO+@lmzAFHHHHHJUTWWWRJSJJJHBl++=$O@+@:=.kjzbbmADADAmmb>@=;&&$+++++%=++==@mAJLKAMcw:O@&+.+,amm",
"5ilmvvkO++eckmmAHHHHHHHHJHJJJJSJAmi++-6HDx2+==+.<flmvmvvvmmvu+$$:yxNNBSKHDAN@$.sAAUREYUYPDMa-+=@++.%",
".OOO.+OO=+:kcmmzmASHHHHHHHJJJDAvm<+$>+AJPTLA0@=..++O+OOO++OO+=:.kmAMUUUUUTRYZ..dAHUWEEWWEEEUA>.=%+X@",
"Bki7>=@===. :izmcmmmNAHHHHSSMmvs++=-=>nATRWRUm@==@@@#==7dlq=$==+ahDHJREEEWEETi.wlSDUWEEWWWEERj.+0cnB",
"LYLUYLDBj>$=@+O+2tlbmbmmmMmmml-+&=. =wMAHHJHAl%.====;=+nUUUJq@-=*kSDHPEEWEWEEK&$dAHHUEWWEWWWYj+.lBBA",
"HHHLRRYLKn+=====@+++%>ejVmvk-+@@+8q .9jcmmma-+==@+@O&=+xBEWRu%==.abDHHJTEEEWWRk.klSHDJUTRYYUJ0@;cSDD",
"SDDHJHJJJF4%=X=.%=;=74=@+O++++2lAFJc+.@:%+#@$+.@$+...++aAJYS$$.+&.wbMSSJSJUEWED-:kcHHJSJHJHJA$=OhmAA",
"mmmmmmnmNN-=+qBn=+;7DRY,==$@ynUTKUYRm.===-:@pNJDFDANr..4cSDa%bj:.&.%wvMBSJJSJJJh.kmmSJJSDANm6@>+:wal",
" ..+++.+OOO;>BPUU7+@zDN$#%gmKUUTTTWWUi.==&.kSPPURYYTB2.+kbx%MKKB0.==+O5xmmMSJHJA@-zbmnbnmm6O=>@OO ++",
"DZj8:@==-=>OxJPRWTyO+u@@wkBBPUTWEWWWWS+&-.aCKUEEEEEEJj.=6j+mJKUEH7.=.,@+&rmcmmBB8.sbvzml>O#;$5zzmMAA",
"WRYUPJl<.=$4BLREWWYj.=->kkBJYEWWEEWWWS2%+8nKUEEWEEEEUN+=@.yDUUWWWH2++kAm-++-wbvMa@.si4+O=::=%zALPUUU",
"EWWEETYA=@.dBLRWEWWJa+=$sjDHEEEWWEEWLS,&&vHUTEEWEWWEUB#==-BKUTWEWRA#@yAUUm-&-@+:$+..@$@$O&;+sNJYEEWE",
"EWWEEEEF=$$mASEWWEWEDq++slDDJEWEWWWRJn#+bAKTEEEEWEEWUM#;OlBLTEEWEWRB.:lHRRUs+$:==;$;aBBm@$=>jBJREEEE",
"EEEEEEYB+;=hAJSEEWWELm=$.knSSJJUTWTJA6+yAKTEEWWEEEWEUn#=2mBLEWEEEWWRiOkAHYWRD6+==6SJKLLJ:@XgmAJEWEEW",
"WEEWWTJq@>.smSHSTWEWKmw+=+lcSJSSHHJHmO-nJUTWEEEEEWWEUb#@kmAJEEWEWEWEJ+0zDHJKLD:#=kAHYREE,&=kmDJRWWWW",
"WEWEWJM+=-$.lCHHJUWEDn+==&XscvSJHHHN2#cAUERWWEWWEEEWLb#:knSDKEEWEWEEY-+jzBHHB<@=7jNHJRWW,+fjnDHKTWWW",
"TWWUHA3+>==$@xAHDJJJM,@;===.=lbmMSmj+0MJTREWEEEWEWEEHk+gkmDHDYEEEEWET,=5xbb6+$>;@amDJHJJ;OvjmDHHHJLL",
"HHJJSj+==.,O+:mAJDDMi@>=@O@@@+>lbmm@+zDKEEEWEWWEEEEUAg+>kcDHJHEEWEWEY2;.=@++:=$==+=immmm++mjbbnASHSJ",
"mmmmc+%-<mDn@.3cMSmh+>$.=ufz7+..=9%+akAJRWWEEWEEEEEJA7=+ylBHHHJURTYKJ6=&$+++$-=@.+&@+-ew@+:almmmbbmv",
"mmck+@&rDLUYJ+Oqcck+=+qnFLLRJm6 ++=+jbDFGWWEEEEWEEJJM>=@.jbmHHHDJJJJH5==.6bDFDJDAk<+==@+:&..O+>0plxm"
};
